Coordinates
version=1
nRows=7
nColumns=40
inDegrees=yes

Units are S.I. units (second, meters, Newtons, ...)
Angles are in degrees.

endheader
time	pelvis_tilt	pelvis_list	pelvis_rotation	pelvis_tx	pelvis_ty	pelvis_tz	hip_flexion_r	hip_adduction_r	hip_rotation_r	knee_angle_r	knee_angle_r_beta	ankle_angle_r	subtalar_angle_r	mtp_angle_r	hip_flexion_l	hip_adduction_l	hip_rotation_l	knee_angle_l	knee_angle_l_beta	ankle_angle_l	subtalar_angle_l	mtp_angle_l	lumbar_extension	lumbar_bending	lumbar_rotation	arm_flex_r	arm_add_r	arm_rot_r	elbow_flex_r	pro_sup_r	wrist_flex_r	wrist_dev_r	arm_flex_l	arm_add_l	arm_rot_l	elbow_flex_l	pro_sup_l	wrist_flex_l	wrist_dev_l
     13.62500000	     -6.00755520	     -6.47179327	      5.02703116	      0.96561069	      0.91653747	      0.47566553	      0.31256202	      5.78988051	    -17.51432054	      9.38543592	      9.38543592	     16.96595380	      3.81702702	     -2.72501456	     36.22234096	     -8.79892732	     -3.12150042	     20.11239179	     20.11239179	      6.86977842	     -6.94361865	     12.14706324	    -10.71463906	      6.99790291	      4.92324891	     42.83758287	    -15.52749522	     -0.85320635	    103.38958573	     44.11040835	      0.00000000	      0.00000000	    -20.82867868	     -7.88183410	     -7.39471195	     25.86779974	     46.66337282	      0.00000000	      0.00000000
     13.63650000	     -6.15306891	     -6.41061574	      4.91566671	      0.96661496	      0.91480371	      0.47381321	     -0.19861548	      5.63509624	    -17.28471018	      9.40753241	      9.40753241	     17.66677700	      3.84874171	     -2.33197318	     35.89778682	     -8.48662142	     -3.15217106	     20.31081410	     20.31081410	      5.63479466	     -7.34650562	     11.07638668	    -10.36208158	      6.75574312	      5.02762505	     43.04652321	    -15.21509421	     -0.72121567	    106.47322873	     44.04650333	      0.00000000	      0.00000000	    -21.09164313	     -7.83984103	     -7.43106763	     25.82356943	     46.65236349	      0.00000000	      0.00000000
     13.64800000	     -6.19742493	     -6.38477838	      4.82175070	      0.96770532	      0.91312880	      0.47183709	     -0.67377885	      5.46769611	    -17.07019754	      9.72367658	      9.72367658	     18.43922900	      3.81849701	     -1.65997759	     35.45263183	     -8.20736619	     -2.91338131	     20.58792115	     20.58792115	      4.13035704	     -7.98348641	      9.11851347	    -10.17928355	      6.59693000	      5.34904554	     43.13952039	    -15.13575296	     -0.66462607	    110.08134729	     43.99252396	      0.00000000	      0.00000000	    -21.09830470	     -7.77783664	     -7.49839592	     25.82029987	     46.64320032	      0.00000000	      0.00000000
     13.65950000	     -6.24114644	     -6.30890102	      4.69981146	      0.96879660	      0.91151431	      0.46979923	     -1.08456988	      5.21455713	    -16.82774406	     10.15008966	     10.15008966	     19.00903114	      3.66113487	     -1.68373616	     35.18198732	     -7.95605624	     -2.74571691	     21.31518840	     21.31518840	      3.43505640	     -8.36648111	      8.77652556	     -9.92572372	      6.37828337	      5.03185194	     43.64093578	    -14.30001533	     -0.30739269	    112.06066050	     43.93220197	      0.00000000	      0.00000000	    -21.26303408	     -7.60798197	     -7.47277916	     25.67230050	     46.63223355	      0.00000000	      0.00000000
     13.67100000	     -6.31654478	     -6.19004587	      4.57723195	      0.96986049	      0.91007837	      0.46760042	     -1.31642624	      4.85720318	    -16.53776258	     10.87869430	     10.87869430	     19.80530831	      3.39086535	     -1.01045378	     34.79840487	     -7.59731007	     -2.32862188	     21.73988694	     21.73988694	      2.00998156	     -9.38429989	      6.72723601	     -9.74036659	      6.11580849	      5.59314164	     43.25303196	    -14.73983353	     -0.10664084	    115.84203147	     43.85986519	      0.00000000	      0.00000000	    -20.85175701	     -7.63792668	     -7.60970903	     25.77460699	     46.64421498	      0.00000000	      0.00000000
     13.68250000	     -6.36639932	     -6.06281385	      4.48219577	      0.97078601	      0.90885131	      0.46534923	     -1.44937337	      4.44983006	    -16.30081849	     11.80480144	     11.80480144	     20.33047583	      3.05236771	     -1.06698672	     34.62014722	     -7.31703439	     -2.06814555	     22.61363206	     22.61363206	      1.59509087	     -9.89470271	      6.12187652	     -9.53918975	      5.85175073	      5.26223625	     43.41403228	    -13.96704894	      0.22636000	    117.81159831	     43.80469635	      0.00000000	      0.00000000	    -20.66418757	     -7.47704545	     -7.56690324	     25.64288635	     46.63458042	      0.00000000	      0.00000000
     13.69400000	     -6.36649011	     -5.87966463	      4.39590265	      0.97166505	      0.90810604	      0.46294376	     -1.48830494	      3.93720567	    -16.03686591	     13.00809952	     13.00809952	     20.82227521	      2.53246486	     -0.91132943	     34.31978336	     -6.95933173	     -1.72469411	     23.33271670	     23.33271670	      1.03257858	    -10.77566954	      4.86500020	     -9.47675408	      5.52252997	      5.61269694	     42.92159679	    -14.21016493	      0.42105730	    120.73252059	     43.75058686	      0.00000000	      0.00000000	    -19.90800340	     -7.49130217	     -7.58498303	     25.54723593	     46.63447388	      0.00000000	      0.00000000
